# xmcd
#
# Track frame offsets: 
#        150
#        17529
#        31512
#        49559
#        69539
#        81740
#        97353
#        114843
#        132134
#        147435
#
# Disc length: 2211 seconds
#
# Revision: 1
# Processed by: cddbd v1.5.2PL0 Copyright (c) Steve Scherf et al.
# Submitted via: ExactAudioCopyFreeDBPlugin 1.0
#
DISCID=8208a10a
DTITLE=Josh Krajcik - Blindly, Lonely, Lovely
DYEAR=2013
DGENRE=Soul
TTITLE0=Nothing
TTITLE1=Back Where We Belong
TTITLE2=No Better Lovers
TTITLE3=The Remedy
TTITLE4=Close Your Eyes
TTITLE5=When You Go
TTITLE6=Don't Make Me Hopeful
TTITLE7=One Thing She'll Never Know
TTITLE8=Her Song
TTITLE9=Let Me Hold You
EXTD=
EXTT0=
EXTT1=
EXTT2=
EXTT3=
EXTT4=
EXTT5=
EXTT6=
EXTT7=
EXTT8=
EXTT9=
PLAYORDER=
